<mxfile host="Electron" modified="2024-02-19T21:05:04.624Z" agent="Mozilla/5.0 (X11; Linux x86_64) AppleWebKit/537.36 (KHTML, like Gecko) draw.io/23.0.2 Chrome/120.0.6099.109 Electron/28.1.0 Safari/537.36" etag="wlTZjToBH1fB8zbqs2II" version="23.0.2" type="device">
  <diagram name="Page-1" id="WrnDEgnyKdEZqnBWWdi6">
    <mxGraphModel dx="2600" dy="1571" grid="1" gridSize="10" guides="1" tooltips="1" connect="1" arrows="1" fold="1" page="1" pageScale="1" pageWidth="850" pageHeight="1100" math="0" shadow="0">
      <root>
        <mxCell id="0" />
        <mxCell id="1" parent="0" />
        <mxCell id="S7xLV24az0bGpphAFLRL-5" style="edgeStyle=orthogonalEdgeStyle;rounded=0;orthogonalLoop=1;jettySize=auto;html=1;entryX=0.5;entryY=0;entryDx=0;entryDy=0;fillColor=#dae8fc;strokeColor=#6c8ebf;" edge="1" parent="1" source="S7xLV24az0bGpphAFLRL-6" target="S7xLV24az0bGpphAFLRL-9">
          <mxGeometry relative="1" as="geometry" />
        </mxCell>
        <mxCell id="S7xLV24az0bGpphAFLRL-6" value="&lt;font style=&quot;font-size: 23px;&quot;&gt;Expression&lt;/font&gt;" style="rounded=1;whiteSpace=wrap;html=1;shadow=0;glass=0;fillColor=#dae8fc;strokeColor=#6c8ebf;" vertex="1" parent="1">
          <mxGeometry x="840" y="120" width="160" height="80" as="geometry" />
        </mxCell>
        <mxCell id="S7xLV24az0bGpphAFLRL-7" style="edgeStyle=orthogonalEdgeStyle;rounded=0;orthogonalLoop=1;jettySize=auto;html=1;exitX=0;exitY=0.5;exitDx=0;exitDy=0;entryX=0.5;entryY=0;entryDx=0;entryDy=0;fillColor=#dae8fc;strokeColor=#6c8ebf;" edge="1" parent="1" source="S7xLV24az0bGpphAFLRL-9" target="S7xLV24az0bGpphAFLRL-11">
          <mxGeometry relative="1" as="geometry" />
        </mxCell>
        <mxCell id="S7xLV24az0bGpphAFLRL-8" style="edgeStyle=orthogonalEdgeStyle;rounded=0;orthogonalLoop=1;jettySize=auto;html=1;entryX=0.5;entryY=0;entryDx=0;entryDy=0;" edge="1" parent="1" source="S7xLV24az0bGpphAFLRL-9">
          <mxGeometry relative="1" as="geometry">
            <mxPoint x="920" y="360" as="targetPoint" />
          </mxGeometry>
        </mxCell>
        <mxCell id="S7xLV24az0bGpphAFLRL-9" value="&lt;font style=&quot;font-size: 23px;&quot;&gt;Term&lt;/font&gt;" style="rounded=1;whiteSpace=wrap;html=1;shadow=0;glass=0;fillColor=#dae8fc;strokeColor=#6c8ebf;" vertex="1" parent="1">
          <mxGeometry x="840" y="240" width="160" height="80" as="geometry" />
        </mxCell>
        <mxCell id="S7xLV24az0bGpphAFLRL-10" style="edgeStyle=orthogonalEdgeStyle;rounded=0;orthogonalLoop=1;jettySize=auto;html=1;entryX=0.5;entryY=0;entryDx=0;entryDy=0;fillColor=#dae8fc;strokeColor=#6c8ebf;" edge="1" parent="1" source="S7xLV24az0bGpphAFLRL-11" target="S7xLV24az0bGpphAFLRL-17">
          <mxGeometry relative="1" as="geometry" />
        </mxCell>
        <mxCell id="S7xLV24az0bGpphAFLRL-11" value="&lt;font style=&quot;font-size: 23px;&quot;&gt;Term&lt;/font&gt;" style="rounded=1;whiteSpace=wrap;html=1;shadow=0;glass=0;fillColor=#dae8fc;strokeColor=#6c8ebf;" vertex="1" parent="1">
          <mxGeometry x="680" y="360" width="160" height="80" as="geometry" />
        </mxCell>
        <mxCell id="S7xLV24az0bGpphAFLRL-12" style="edgeStyle=orthogonalEdgeStyle;rounded=0;orthogonalLoop=1;jettySize=auto;html=1;entryX=0.5;entryY=0;entryDx=0;entryDy=0;" edge="1" parent="1" source="S7xLV24az0bGpphAFLRL-13">
          <mxGeometry relative="1" as="geometry">
            <mxPoint x="1079.9999999999998" y="480" as="targetPoint" />
          </mxGeometry>
        </mxCell>
        <mxCell id="S7xLV24az0bGpphAFLRL-13" value="&lt;font style=&quot;&quot;&gt;&lt;font style=&quot;font-size: 23px;&quot;&gt;Factor&lt;/font&gt;&lt;br&gt;&lt;/font&gt;" style="rounded=1;whiteSpace=wrap;html=1;shadow=0;glass=0;" vertex="1" parent="1">
          <mxGeometry x="1000" y="360" width="160" height="80" as="geometry" />
        </mxCell>
        <mxCell id="S7xLV24az0bGpphAFLRL-14" style="edgeStyle=orthogonalEdgeStyle;rounded=0;orthogonalLoop=1;jettySize=auto;html=1;exitX=0;exitY=0.5;exitDx=0;exitDy=0;entryX=0.5;entryY=0;entryDx=0;entryDy=0;" edge="1" parent="1">
          <mxGeometry relative="1" as="geometry">
            <mxPoint x="1000" y="280.00275862068975" as="sourcePoint" />
            <mxPoint x="1080" y="360.00275862068975" as="targetPoint" />
          </mxGeometry>
        </mxCell>
        <mxCell id="S7xLV24az0bGpphAFLRL-15" value="&lt;font style=&quot;font-size: 39px;&quot;&gt;*&lt;/font&gt;" style="ellipse;whiteSpace=wrap;html=1;aspect=fixed;" vertex="1" parent="1">
          <mxGeometry x="880" y="360" width="80" height="80" as="geometry" />
        </mxCell>
        <mxCell id="S7xLV24az0bGpphAFLRL-16" style="edgeStyle=orthogonalEdgeStyle;rounded=0;orthogonalLoop=1;jettySize=auto;html=1;entryX=0.5;entryY=0;entryDx=0;entryDy=0;fillColor=#dae8fc;strokeColor=#6c8ebf;" edge="1" parent="1" source="S7xLV24az0bGpphAFLRL-17" target="S7xLV24az0bGpphAFLRL-21">
          <mxGeometry relative="1" as="geometry" />
        </mxCell>
        <mxCell id="S7xLV24az0bGpphAFLRL-17" value="&lt;font style=&quot;font-size: 23px;&quot;&gt;Factor&lt;/font&gt;" style="rounded=1;whiteSpace=wrap;html=1;shadow=0;glass=0;fillColor=#dae8fc;strokeColor=#6c8ebf;" vertex="1" parent="1">
          <mxGeometry x="680" y="480" width="160" height="80" as="geometry" />
        </mxCell>
        <mxCell id="S7xLV24az0bGpphAFLRL-18" style="edgeStyle=orthogonalEdgeStyle;rounded=0;orthogonalLoop=1;jettySize=auto;html=1;" edge="1" parent="1" source="S7xLV24az0bGpphAFLRL-21">
          <mxGeometry relative="1" as="geometry">
            <mxPoint x="760" y="760" as="targetPoint" />
          </mxGeometry>
        </mxCell>
        <mxCell id="S7xLV24az0bGpphAFLRL-19" style="edgeStyle=orthogonalEdgeStyle;rounded=0;orthogonalLoop=1;jettySize=auto;html=1;exitX=0.25;exitY=1;exitDx=0;exitDy=0;entryX=0.5;entryY=0;entryDx=0;entryDy=0;" edge="1" parent="1" source="S7xLV24az0bGpphAFLRL-21" target="S7xLV24az0bGpphAFLRL-27">
          <mxGeometry relative="1" as="geometry" />
        </mxCell>
        <mxCell id="S7xLV24az0bGpphAFLRL-20" style="edgeStyle=orthogonalEdgeStyle;rounded=0;orthogonalLoop=1;jettySize=auto;html=1;exitX=0.75;exitY=1;exitDx=0;exitDy=0;entryX=0.5;entryY=0;entryDx=0;entryDy=0;fillColor=#dae8fc;strokeColor=#6c8ebf;" edge="1" parent="1" source="S7xLV24az0bGpphAFLRL-21">
          <mxGeometry relative="1" as="geometry">
            <mxPoint x="920" y="760" as="targetPoint" />
          </mxGeometry>
        </mxCell>
        <mxCell id="S7xLV24az0bGpphAFLRL-21" value="&lt;font style=&quot;font-size: 23px;&quot;&gt;Expression&lt;/font&gt;" style="rounded=1;whiteSpace=wrap;html=1;shadow=0;glass=0;fillColor=#dae8fc;strokeColor=#6c8ebf;" vertex="1" parent="1">
          <mxGeometry x="680" y="600" width="160" height="80" as="geometry" />
        </mxCell>
        <mxCell id="S7xLV24az0bGpphAFLRL-22" value="&lt;font style=&quot;font-size: 39px;&quot;&gt;(&lt;/font&gt;" style="ellipse;whiteSpace=wrap;html=1;aspect=fixed;" vertex="1" parent="1">
          <mxGeometry x="560" y="600" width="80" height="80" as="geometry" />
        </mxCell>
        <mxCell id="S7xLV24az0bGpphAFLRL-23" value="&lt;font style=&quot;font-size: 39px;&quot;&gt;)&lt;/font&gt;" style="ellipse;whiteSpace=wrap;html=1;aspect=fixed;" vertex="1" parent="1">
          <mxGeometry x="880" y="600" width="80" height="80" as="geometry" />
        </mxCell>
        <mxCell id="S7xLV24az0bGpphAFLRL-24" style="edgeStyle=orthogonalEdgeStyle;rounded=0;orthogonalLoop=1;jettySize=auto;html=1;exitX=0;exitY=0.5;exitDx=0;exitDy=0;entryX=0.5;entryY=0;entryDx=0;entryDy=0;" edge="1" parent="1">
          <mxGeometry relative="1" as="geometry">
            <mxPoint x="680" y="520" as="sourcePoint" />
            <mxPoint x="600" y="600" as="targetPoint" />
          </mxGeometry>
        </mxCell>
        <mxCell id="S7xLV24az0bGpphAFLRL-25" style="edgeStyle=orthogonalEdgeStyle;rounded=0;orthogonalLoop=1;jettySize=auto;html=1;exitX=0;exitY=0.5;exitDx=0;exitDy=0;entryX=0.5;entryY=0;entryDx=0;entryDy=0;" edge="1" parent="1">
          <mxGeometry relative="1" as="geometry">
            <mxPoint x="840" y="520.0027586206897" as="sourcePoint" />
            <mxPoint x="920" y="600.0027586206897" as="targetPoint" />
          </mxGeometry>
        </mxCell>
        <mxCell id="S7xLV24az0bGpphAFLRL-26" style="edgeStyle=orthogonalEdgeStyle;rounded=0;orthogonalLoop=1;jettySize=auto;html=1;entryX=0.5;entryY=0;entryDx=0;entryDy=0;" edge="1" parent="1" source="S7xLV24az0bGpphAFLRL-27" target="S7xLV24az0bGpphAFLRL-30">
          <mxGeometry relative="1" as="geometry" />
        </mxCell>
        <mxCell id="S7xLV24az0bGpphAFLRL-27" value="&lt;font style=&quot;font-size: 23px;&quot;&gt;Expression&lt;/font&gt;" style="rounded=1;whiteSpace=wrap;html=1;shadow=0;glass=0;" vertex="1" parent="1">
          <mxGeometry x="520" y="760" width="160" height="80" as="geometry" />
        </mxCell>
        <mxCell id="S7xLV24az0bGpphAFLRL-28" value="&lt;font style=&quot;font-size: 39px;&quot;&gt;+&lt;/font&gt;" style="ellipse;whiteSpace=wrap;html=1;aspect=fixed;" vertex="1" parent="1">
          <mxGeometry x="720" y="760" width="80" height="80" as="geometry" />
        </mxCell>
        <mxCell id="S7xLV24az0bGpphAFLRL-29" style="edgeStyle=orthogonalEdgeStyle;rounded=0;orthogonalLoop=1;jettySize=auto;html=1;entryX=0.5;entryY=0;entryDx=0;entryDy=0;" edge="1" parent="1" source="S7xLV24az0bGpphAFLRL-30">
          <mxGeometry relative="1" as="geometry">
            <mxPoint x="600" y="1000" as="targetPoint" />
          </mxGeometry>
        </mxCell>
        <mxCell id="S7xLV24az0bGpphAFLRL-30" value="&lt;font style=&quot;font-size: 23px;&quot;&gt;Term&lt;/font&gt;" style="rounded=1;whiteSpace=wrap;html=1;shadow=0;glass=0;" vertex="1" parent="1">
          <mxGeometry x="520" y="880" width="160" height="80" as="geometry" />
        </mxCell>
        <mxCell id="S7xLV24az0bGpphAFLRL-31" style="edgeStyle=orthogonalEdgeStyle;rounded=0;orthogonalLoop=1;jettySize=auto;html=1;entryX=0.5;entryY=0;entryDx=0;entryDy=0;" edge="1" parent="1" source="S7xLV24az0bGpphAFLRL-32" target="S7xLV24az0bGpphAFLRL-33">
          <mxGeometry relative="1" as="geometry" />
        </mxCell>
        <mxCell id="S7xLV24az0bGpphAFLRL-32" value="&lt;font style=&quot;font-size: 23px;&quot;&gt;Factor&lt;/font&gt;" style="rounded=1;whiteSpace=wrap;html=1;shadow=0;glass=0;" vertex="1" parent="1">
          <mxGeometry x="520" y="1000" width="160" height="80" as="geometry" />
        </mxCell>
        <mxCell id="S7xLV24az0bGpphAFLRL-33" value="&lt;font style=&quot;font-size: 39px;&quot;&gt;A&lt;/font&gt;" style="ellipse;whiteSpace=wrap;html=1;aspect=fixed;" vertex="1" parent="1">
          <mxGeometry x="560" y="1120" width="80" height="80" as="geometry" />
        </mxCell>
        <mxCell id="S7xLV24az0bGpphAFLRL-34" value="&lt;font style=&quot;font-size: 39px;&quot;&gt;C&lt;/font&gt;" style="ellipse;whiteSpace=wrap;html=1;aspect=fixed;" vertex="1" parent="1">
          <mxGeometry x="1040" y="480" width="80" height="80" as="geometry" />
        </mxCell>
        <mxCell id="S7xLV24az0bGpphAFLRL-35" style="edgeStyle=orthogonalEdgeStyle;rounded=0;orthogonalLoop=1;jettySize=auto;html=1;entryX=0.5;entryY=0;entryDx=0;entryDy=0;fillColor=#dae8fc;strokeColor=#6c8ebf;" edge="1" parent="1" source="S7xLV24az0bGpphAFLRL-36">
          <mxGeometry relative="1" as="geometry">
            <mxPoint x="920" y="880" as="targetPoint" />
          </mxGeometry>
        </mxCell>
        <mxCell id="S7xLV24az0bGpphAFLRL-36" value="&lt;font style=&quot;font-size: 23px;&quot;&gt;Term&lt;/font&gt;" style="rounded=1;whiteSpace=wrap;html=1;shadow=0;glass=0;fillColor=#dae8fc;strokeColor=#6c8ebf;" vertex="1" parent="1">
          <mxGeometry x="840" y="760" width="160" height="80" as="geometry" />
        </mxCell>
        <mxCell id="S7xLV24az0bGpphAFLRL-37" style="edgeStyle=orthogonalEdgeStyle;rounded=0;orthogonalLoop=1;jettySize=auto;html=1;entryX=0.5;entryY=0;entryDx=0;entryDy=0;fillColor=#dae8fc;strokeColor=#6c8ebf;" edge="1" parent="1" source="S7xLV24az0bGpphAFLRL-38" target="S7xLV24az0bGpphAFLRL-39">
          <mxGeometry relative="1" as="geometry" />
        </mxCell>
        <mxCell id="S7xLV24az0bGpphAFLRL-38" value="&lt;font style=&quot;font-size: 23px;&quot;&gt;Factor&lt;/font&gt;" style="rounded=1;whiteSpace=wrap;html=1;shadow=0;glass=0;fillColor=#dae8fc;strokeColor=#6c8ebf;" vertex="1" parent="1">
          <mxGeometry x="840" y="880" width="160" height="80" as="geometry" />
        </mxCell>
        <mxCell id="S7xLV24az0bGpphAFLRL-39" value="&lt;font style=&quot;font-size: 39px;&quot;&gt;B&lt;/font&gt;" style="ellipse;whiteSpace=wrap;html=1;aspect=fixed;fillColor=#dae8fc;strokeColor=#6c8ebf;" vertex="1" parent="1">
          <mxGeometry x="880" y="1000" width="80" height="80" as="geometry" />
        </mxCell>
      </root>
    </mxGraphModel>
  </diagram>
</mxfile>
